<mxfile host="app.diagrams.net" modified="2020-11-10T08:31:18.935Z" agent="5.0 (Windows NT 10.0; Win64; x64) AppleWebKit/537.36 (KHTML, like Gecko) Chrome/86.0.4240.183 Safari/537.36 Edg/86.0.622.63" etag="Es0SiKQ68Yrs_QLG89ZQ" version="13.9.3" type="github">
  <diagram id="UfCDmlji5BRWwAAZilHE" name="Page-1">
    <mxGraphModel dx="1422" dy="794" grid="1" gridSize="10" guides="1" tooltips="1" connect="1" arrows="1" fold="1" page="1" pageScale="1" pageWidth="827" pageHeight="1169" math="0" shadow="0">
      <root>
        <mxCell id="0" />
        <mxCell id="1" parent="0" />
        <mxCell id="Y6qhXy6sjdtOq2Szb0JI-8" style="edgeStyle=orthogonalEdgeStyle;rounded=0;orthogonalLoop=1;jettySize=auto;html=1;entryX=-0.167;entryY=0.5;entryDx=0;entryDy=0;entryPerimeter=0;" edge="1" parent="1" source="Y6qhXy6sjdtOq2Szb0JI-1" target="Y6qhXy6sjdtOq2Szb0JI-7">
          <mxGeometry relative="1" as="geometry" />
        </mxCell>
        <mxCell id="Y6qhXy6sjdtOq2Szb0JI-1" value="Funktion1" style="rounded=1;whiteSpace=wrap;html=1;" vertex="1" parent="1">
          <mxGeometry x="414" y="310" width="120" height="60" as="geometry" />
        </mxCell>
        <mxCell id="Y6qhXy6sjdtOq2Szb0JI-11" style="edgeStyle=orthogonalEdgeStyle;rounded=0;orthogonalLoop=1;jettySize=auto;html=1;entryX=0;entryY=0.5;entryDx=0;entryDy=0;" edge="1" parent="1" source="Y6qhXy6sjdtOq2Szb0JI-2" target="Y6qhXy6sjdtOq2Szb0JI-10">
          <mxGeometry relative="1" as="geometry" />
        </mxCell>
        <mxCell id="Y6qhXy6sjdtOq2Szb0JI-2" value="Funktion2" style="rounded=1;whiteSpace=wrap;html=1;" vertex="1" parent="1">
          <mxGeometry x="410" y="555" width="120" height="60" as="geometry" />
        </mxCell>
        <mxCell id="Y6qhXy6sjdtOq2Szb0JI-4" style="edgeStyle=orthogonalEdgeStyle;rounded=0;orthogonalLoop=1;jettySize=auto;html=1;exitX=1;exitY=0.5;exitDx=0;exitDy=0;" edge="1" parent="1" source="Y6qhXy6sjdtOq2Szb0JI-3">
          <mxGeometry relative="1" as="geometry">
            <mxPoint x="410" y="350" as="targetPoint" />
            <mxPoint x="280" y="410" as="sourcePoint" />
          </mxGeometry>
        </mxCell>
        <mxCell id="Y6qhXy6sjdtOq2Szb0JI-5" style="edgeStyle=orthogonalEdgeStyle;rounded=0;orthogonalLoop=1;jettySize=auto;html=1;entryX=0;entryY=0.5;entryDx=0;entryDy=0;" edge="1" parent="1" source="Y6qhXy6sjdtOq2Szb0JI-3" target="Y6qhXy6sjdtOq2Szb0JI-2">
          <mxGeometry relative="1" as="geometry" />
        </mxCell>
        <mxCell id="Y6qhXy6sjdtOq2Szb0JI-3" value="Start" style="text;html=1;strokeColor=none;fillColor=none;align=center;verticalAlign=middle;whiteSpace=wrap;rounded=0;" vertex="1" parent="1">
          <mxGeometry x="120" y="340" width="40" height="20" as="geometry" />
        </mxCell>
        <mxCell id="Y6qhXy6sjdtOq2Szb0JI-6" value="Aufrufen" style="text;html=1;strokeColor=none;fillColor=none;align=center;verticalAlign=middle;whiteSpace=wrap;rounded=0;" vertex="1" parent="1">
          <mxGeometry x="270" y="320" width="40" height="20" as="geometry" />
        </mxCell>
        <mxCell id="Y6qhXy6sjdtOq2Szb0JI-15" style="edgeStyle=orthogonalEdgeStyle;rounded=0;orthogonalLoop=1;jettySize=auto;html=1;exitX=1;exitY=0.5;exitDx=0;exitDy=0;entryX=0;entryY=0.5;entryDx=0;entryDy=0;" edge="1" parent="1" source="Y6qhXy6sjdtOq2Szb0JI-7" target="Y6qhXy6sjdtOq2Szb0JI-13">
          <mxGeometry relative="1" as="geometry" />
        </mxCell>
        <mxCell id="Y6qhXy6sjdtOq2Szb0JI-7" value="F1s" style="rounded=1;whiteSpace=wrap;html=1;" vertex="1" parent="1">
          <mxGeometry x="840" y="310" width="120" height="60" as="geometry" />
        </mxCell>
        <mxCell id="Y6qhXy6sjdtOq2Szb0JI-9" value="Konfigurieren" style="text;html=1;strokeColor=none;fillColor=none;align=center;verticalAlign=middle;whiteSpace=wrap;rounded=0;" vertex="1" parent="1">
          <mxGeometry x="650" y="310" width="40" height="20" as="geometry" />
        </mxCell>
        <mxCell id="Y6qhXy6sjdtOq2Szb0JI-10" value="F2s" style="rounded=1;whiteSpace=wrap;html=1;" vertex="1" parent="1">
          <mxGeometry x="840" y="555" width="120" height="60" as="geometry" />
        </mxCell>
        <mxCell id="Y6qhXy6sjdtOq2Szb0JI-12" value="Konfigurieren" style="text;html=1;strokeColor=none;fillColor=none;align=center;verticalAlign=middle;whiteSpace=wrap;rounded=0;" vertex="1" parent="1">
          <mxGeometry x="650" y="555" width="40" height="20" as="geometry" />
        </mxCell>
        <mxCell id="Y6qhXy6sjdtOq2Szb0JI-13" value="" style="rounded=1;whiteSpace=wrap;html=1;" vertex="1" parent="1">
          <mxGeometry x="1200" y="310" width="120" height="60" as="geometry" />
        </mxCell>
        <mxCell id="Y6qhXy6sjdtOq2Szb0JI-14" value="" style="rounded=0;whiteSpace=wrap;html=1;" vertex="1" parent="1">
          <mxGeometry x="1200" y="570" width="120" height="60" as="geometry" />
        </mxCell>
      </root>
    </mxGraphModel>
  </diagram>
</mxfile>
